HIERARCHY
ROOT Hips
{
	OFFSET 0.000000 0.000000 0.000000 
	CHANNELS 6 Xposition Yposition Zposition Yrotation Zrotation Xrotation 
	JOINT Lumbar
	{
		OFFSET 0.000000 0.000000 0.000000 
		CHANNELS 3 Zrotation Xrotation Yrotation
		JOINT Neck
		{
			OFFSET 0.000000 0.445665 0.000000 
			CHANNELS 3 Zrotation Xrotation Yrotation
			End Site
			{
				OFFSET 0.000000 0.227535 0.000000 
			}
		}
		JOINT RightShoulder
		{
			OFFSET 0.019635 0.377685 0.194865 
			CHANNELS 3 Zrotation Xrotation Yrotation
			JOINT RightElbow
			{
				OFFSET 0.000000 -0.243375 0.000000 
				CHANNELS 2 Zrotation Yrotation
				JOINT RightWrist
				{
					OFFSET 0.000000 -0.264825 0.000000 
					CHANNELS 2 Zrotation Xrotation
					End Site
					{
						OFFSET 0.006600 -0.176220 0.000990 
					}
				}
			}
		}
		JOINT LeftShoulder
		{
			OFFSET 0.019635 0.377685 -0.194865 
			CHANNELS 3 Zrotation Xrotation Yrotation
			JOINT LeftElbow
			{
				OFFSET 0.000000 -0.243375 0.000000 
				CHANNELS 2 Zrotation Yrotation
				JOINT LeftWrist
				{
					OFFSET 0.000000 -0.264825 0.000000 
					CHANNELS 2 Zrotation Xrotation
					End Site
					{
						OFFSET 0.006600 -0.176220 -0.000990 
					}
				}
			}
		}
	}
	JOINT RightHip
	{
		OFFSET 0.052140 -0.069960 0.075570 
		CHANNELS 3 Zrotation Xrotation Yrotation
		JOINT RightKnee
		{
			OFFSET 0.000000 -0.402270 0.000000 
			CHANNELS 1 Zrotation
			JOINT RightAnkle
			{
				OFFSET 0.000000 -0.404085 0.000000 
				CHANNELS 3 Zrotation Xrotation Yrotation
				End Site
				{
					OFFSET 0.204105 -0.089430 0.008415 
				}
			}
		}
	}
	JOINT LeftHip
	{
		OFFSET 0.052140 -0.069960 -0.075570 
		CHANNELS 3 Zrotation Xrotation Yrotation
		JOINT LeftKnee
		{
			OFFSET 0.000000 -0.402270 0.000000 
			CHANNELS 1 Zrotation
			JOINT LeftAnkle
			{
				OFFSET 0.000000 -0.404085 0.000000 
				CHANNELS 3 Zrotation Xrotation Yrotation
				End Site
				{
					OFFSET 0.204105 -0.089430 -0.008415 
				}
			}
		}
	}
}
MOTION
Frames: 25
Frame Time: 0.02
-0.00123 -0.00021 -0.00327 -169.28894 -32.58484 -3.47727 46.69089 2.17291 -4.61863 -10.42724 3.65592 -1.23871 -22.2627 -9.18381 -1.47036 35.4747 90.56653 7.8739 -0.00538 -28.25275 10.69093 6.76557 43.28026 -140.40826 25.94962 -7.53564 34.4237 -2.75203 -15.856 -20.98463 -7.7653 -3.06226 -3.77533 36.31386 11.88838 8.41691 -26.80097 -7.89642 3.13148 3.82707
-0.00079 -0.00017 -0.0021 -169.1452 -32.57336 -3.44272 46.6505 2.15955 -4.66252 -10.45224 3.67357 -1.23929 -22.31025 -9.26383 -1.58123 35.44771 90.42913 7.83996 0.00222 -28.13361 10.88218 5.98098 43.21424 -135.97677 24.78317 -6.81812 34.40986 -2.82216 -15.67126 -20.98275 -7.78743 -3.08091 -3.78681 36.34585 11.69853 8.05691 -26.79932 -7.9159 3.15962 3.84112
-0.00035 -0.00014 -0.00093 -169.00176 -32.56217 -3.4083 46.61042 2.14617 -4.70622 -10.47726 3.69151 -1.23987 -22.3576 -9.34363 -1.69182 35.42058 90.29202 7.806 0.00978 -28.01466 11.07323 5.19763 43.14846 -131.55849 23.62008 -6.10273 34.39635 -2.89224 -15.48726 -20.98093 -7.80951 -3.0995 -3.79826 36.3781 11.50923 7.69841 -26.79775 -7.93526 3.18764 3.8551
9e-05 -0.0001 0.00023 -168.85843 -32.55078 -3.37386 46.57019 2.13285 -4.74997 -10.5022 3.70913 -1.24045 -22.40502 -9.42341 -1.80236 35.39365 90.15502 7.77214 0.01736 -27.89585 11.26397 4.41523 43.08264 -127.14067 22.45723 -5.38742 34.3826 -2.96219 -15.30314 -20.97907 -7.83158 -3.1181 -3.80971 36.41006 11.31996 7.33959 -26.79612 -7.95467 3.21569 3.8691
0.00053 -7e-05 0.0014 -168.71489 -32.53899 -3.33929 46.52956 2.11955 -4.7939 -10.5271 3.72638 -1.24103 -22.45263 -9.50336 -1.91317 35.36688 90.01777 7.73833 0.02497 -27.77691 11.45473 3.63215 43.01658 -122.70957 21.29102 -4.66996 34.36839 -3.03211 -15.11815 -20.97713 -7.85369 -3.13676 -3.82119 36.44162 11.13015 6.97912 -26.7944 -7.9742 3.24389 3.88318
0.00097 -3e-05 0.00257 -168.57168 -32.52906 -3.3052 46.49063 2.10599 -4.83712 -10.55237 3.7458 -1.24163 -22.4994 -9.58285 -2.02329 35.339 89.88098 7.70409 0.03243 -27.65796 11.64635 2.84834 42.95142 -118.31836 20.13448 -3.95893 34.35635 -3.10252 -14.93622 -20.97556 -7.8757 -3.1552 -3.83255 36.47531 10.94192 6.62474 -26.79314 -7.99322 3.27154 3.89696
0.0014 0 0.00373 -168.42792 -32.51545 -3.27015 46.44838 2.09301 -4.88176 -10.57683 3.76068 -1.24218 -22.54793 -9.66322 -2.13465 35.31351 89.74339 7.67075 0.04018 -27.53915 11.83611 2.06658 42.88449 -113.85259 18.96011 -3.23592 34.33998 -3.17189 -14.74848 -20.97325 -7.89788 -3.17405 -3.84416 36.50472 10.75075 6.25857 -26.79095 -8.01324 3.30025 3.91132
0.00185 4e-05 0.0049 -168.28472 -32.50514 -3.23602 46.40905 2.07944 -4.92501 -10.60212 3.78005 -1.24278 -22.5946 -9.74273 -2.24491 35.28558 89.60659 7.63658 0.04767 -27.42023 12.02745 1.28346 42.81924 -109.45401 17.80153 -2.52365 34.32756 -3.24219 -14.56585 -20.9716 -7.91993 -3.19254 -3.85554 36.53799 10.56224 5.90313 -26.78961 -8.03235 3.32799 3.92516
0.00229 7e-05 0.00608 -168.1419 -32.49926 -3.20289 46.37389 2.06535 -4.96688 -10.62812 3.80379 -1.24342 -22.63996 -9.82138 -2.35374 35.25552 89.47049 7.60134 0.05484 -27.30104 12.22138 0.49601 42.75584 -105.14183 16.66432 -1.82541 34.3202 -3.3138 -14.39042 -20.97086 -7.94174 -3.21054 -3.86661 36.5764 10.37711 5.56132 -26.78937 -8.0503 3.35451 3.93833
0.00271 0.0001 0.00719 -167.99597 -32.46909 -3.16362 46.31656 2.05483 -5.01766 -10.64912 3.799 -1.24379 -22.69576 -9.90556 -2.4705 35.24029 89.32954 7.5721 0.06386 -27.18297 12.40242 -0.27458 42.68115 -100.34526 15.41032 -1.04915 34.28444 -3.3784 -14.17643 -20.96519 -7.96467 -3.23122 -3.87937 36.58651 10.17292 5.14263 -26.78298 -8.0748 3.38794 3.95523
0.00319 0.00015 0.00846 -167.85723 -32.48938 -3.13758 46.30482 2.03643 -5.04902 -10.68125 3.85651 -1.24474 -22.7277 -9.9777 -2.57072 35.19216 89.19939 7.53029 0.06897 -27.06286 12.60933 -1.0754 42.6307 -96.56291 14.3989 -0.43583 34.30809 -3.45742 -14.04194 -20.96975 -7.98539 -3.24634 -3.88863 36.65547 10.00869 4.88514 -26.78943 -8.08552 3.40689 3.96433
0.00383 0.00024 0.01017 -167.73368 -32.6562 -3.14607 46.429 1.9991 -5.03182 -10.73922 4.06914 -1.24728 -22.70749 -10.01922 -2.62434 35.06556 89.09726 7.45358 0.06406 -26.93451 12.89877 -2.0038 42.64397 -95.65988 14.09374 -0.28883 34.50118 -3.57983 -14.14338 -21.00435 -7.99888 -3.24507 -3.88754 36.8949 9.95736 5.08326 -26.83263 -8.05774 3.38484 3.95125
0.00455 0.00035 0.01205 -167.61851 -32.87227 -3.16824 46.59682 1.95334 -4.99428 -10.80913 4.34704 -1.25041 -22.66019 -10.048 -2.66196 34.90341 89.00836 7.3647 0.0557 -26.80474 13.21193 -2.95374 42.68203 -95.76187 14.02668 -0.30279 34.75304 -3.71608 -14.32167 -21.04903 -8.01036 -3.23839 -3.88306 37.19187 9.94568 5.44121 -26.88843 -8.01624 3.34847 3.93047
0.00525 0.00045 0.01386 -167.5021 -33.06045 -3.18527 46.73776 1.90966 -4.96292 -10.87675 4.60567 -1.25325 -22.61745 -10.08129 -2.70721 34.75023 88.91176 7.28117 0.04772 -26.67719 13.50688 -3.86543 42.71068 -95.33539 13.82151 -0.22938 34.97342 -3.84347 -14.45277 -21.08757 -8.02352 -3.23495 -3.88065 37.45654 9.91358 5.71685 -26.93749 -7.98147 3.31951 3.91372
0.00588 0.00056 0.01564 -167.37362 -33.27167 -3.19761 46.90906 1.87338 -4.94429 -10.93157 4.8214 -1.25617 -22.61014 -10.12078 -2.74936 34.62864 88.81366 7.1968 0.04232 -26.54246 13.83375 -4.89967 42.73188 -95.19541 13.73459 -0.21258 35.21278 -3.98159 -14.63449 -21.13196 -8.03345 -3.2283 -3.87605 37.74689 9.89119 6.03197 -26.99092 -7.94458 3.2868 3.89476
0.00667 0.00066 0.01751 -167.27384 -33.44697 -3.22316 47.02684 1.81968 -4.89455 -11.01538 5.14091 -1.25907 -22.51918 -10.14331 -2.79615 34.43117 88.73266 7.11329 0.03377 -26.42302 14.09913 -5.68083 42.77408 -94.71992 13.46843 -0.12075 35.42816 -4.10081 -14.73064 -21.16751 -8.04963 -3.2269 -3.87512 37.9979 9.85861 6.30484 -27.03814 -7.90884 3.2584 3.87852
0.00781 0.00072 0.01966 -167.23838 -33.50726 -3.28005 46.99102 1.7199 -4.76203 -11.18024 5.73936 -1.26187 -22.23222 -10.13091 -2.84234 34.04675 88.60143 7.01754 -0.00916 -26.34019 14.19471 -5.78385 42.87074 -92.86736 12.55493 0.25953 35.54944 -4.16289 -14.5574 -21.16892 -8.08346 -3.24277 -3.88598 38.12143 9.78237 6.4028 -27.06573 -7.87995 3.24624 3.87213
0.00912 0.00078 0.0219 -167.23433 -33.53027 -3.35013 46.89864 1.60294 -4.59927 -11.373 6.43805 -1.26462 -21.85613 -10.10027 -2.89659 33.58439 88.50338 6.92593 -0.05042 -26.27374 14.22692 -5.62757 42.98672 -90.67771 11.46881 0.71361 35.64746 -4.20575 -14.29809 -21.16304 -8.12369 -3.26382 -3.90049 38.20415 9.69554 6.45587 -27.08645 -7.85269 3.2388 3.86869
0.01038 0.00085 0.02406 -167.22383 -33.57291 -3.41526 46.82926 1.49377 -4.45155 -11.55057 7.08583 -1.26734 -21.50297 -10.07215 -2.95902 33.14892 88.45341 6.8445 -0.07475 -26.20387 14.28375 -5.5717 43.09281 -88.77965 10.52527 1.10583 35.76443 -4.25846 -14.08755 -21.16444 -8.16101 -3.28158 -3.91279 38.3088 9.61742 6.54241 -27.10997 -7.82441 3.22857 3.86355
0.0115 0.0009 0.02636 -167.17889 -33.60634 -3.47626 46.77387 1.38409 -4.29757 -11.73965 7.76004 -1.2703 -21.22544 -10.06775 -2.97253 32.74917 88.14205 6.71352 -0.17294 -26.11758 14.35725 -5.58605 43.20642 -86.34323 9.32549 1.60991 35.84641 -4.30698 -13.83885 -21.1469 -8.19815 -3.30318 -3.92733 38.40163 9.52437 6.58081 -27.13554 -7.79661 3.22032 3.85952
0.01297 0.00098 0.0284 -167.21516 -33.64895 -3.54907 46.67403 1.27189 -4.14983 -11.9106 8.40021 -1.27276 -20.76657 -10.01004 -3.088 32.2558 88.37681 6.68461 -0.11803 -26.06863 14.38295 -5.39743 43.30615 -84.9214 8.60755 1.90323 35.99707 -4.35946 -13.64828 -21.17016 -8.23735 -3.31799 -3.93807 38.50806 9.45918 6.70494 -27.15472 -7.76865 3.20957 3.85415
0.01529 0.00113 0.02971 -167.45004 -33.73043 -3.64909 46.47695 1.15373 -4.02548 -12.02958 8.93831 -1.27365 -19.85472 -9.80715 -3.50198 31.53316 90.16105 6.95607 0.3697 -26.12539 14.27263 -4.66759 43.3841 -86.49732 9.32897 1.57459 36.32609 -4.42713 -13.63677 -21.28127 -8.27979 -3.31398 -3.9379 38.66707 9.47503 7.09101 -27.16079 -7.7376 3.18821 3.84304
0.01795 0.0013 0.03075 -167.76901 -33.82165 -3.76086 46.23516 1.03427 -3.90857 -12.12821 9.43544 -1.27408 -18.75898 -9.55158 -4.01553 30.71735 92.48257 7.32651 1.00967 -26.21783 14.12009 -3.75077 43.44333 -89.08038 10.5281 1.03607 36.72863 -4.49905 -13.68591 -21.4392 -8.3244 -3.30292 -3.93378 38.84024 9.51874 7.56116 -27.16013 -7.70687 3.16476 3.83079
0.02048 0.00147 0.03189 -168.06103 -33.90486 -3.86867 46.00539 0.91757 -3.78943 -12.23311 9.94004 -1.27487 -17.73024 -9.32203 -4.47034 29.93761 94.52791 7.63887 1.57284 -26.28978 13.9994 -2.94817 43.49704 -91.12184 11.46307 0.60899 37.10747 -4.56982 -13.70971 -21.59239 -8.36847 -3.29415 -3.93104 39.00296 9.54852 7.98306 -27.16054 -7.67749 3.14394 3.81996
0.02292 0.0016 0.03313 -168.30604 -34.00067 -3.97125 45.80683 0.79115 -3.66524 -12.35229 10.49467 -1.27505 -16.76733 -9.0838 -4.97961 29.18131 96.7172 8.00663 2.16749 -26.38083 13.82244 -2.01228 43.61063 -93.5035 12.58896 0.11709 37.4416 -4.63841 -13.72491 -21.67316 -8.41036 -3.28883 -3.92985 39.18007 9.58345 8.44712 -27.16885 -7.64168 3.11601 3.80532
